<?xml version="1.0" standalone="no"?>
<!DOCTYPE svg PUBLIC "-//W3C//DTD SVG 20010904//EN"
 "http://www.w3.org/TR/2001/REC-SVG-20010904/DTD/svg10.dtd">
<svg version="1.0" xmlns="http://www.w3.org/2000/svg"
 width="354.000000pt" height="354.000000pt" viewBox="0 0 354.000000 354.000000"
 preserveAspectRatio="xMidYMid meet">
<metadata>
Created by potrace 1.11, written by Peter Selinger 2001-2013
</metadata>
<g transform="translate(0.000000,354.000000) scale(0.100000,-0.100000)"
fill="#000000" stroke="none">
<path d="M10 1770 l0 -1770 1760 0 1760 0 0 1770 0 1770 -1760 0 -1760 0 0
-1770z m2783 682 c41 -36 6 -112 -52 -112 -50 0 -80 46 -61 94 17 45 72 54
113 18z m-1676 -307 c63 -27 104 -65 131 -124 25 -53 27 -66 32 -277 5 -235 8
-246 57 -265 19 -7 23 -16 23 -49 0 -36 -2 -40 -25 -40 -38 0 -104 37 -117 65
-14 31 -19 31 -47 1 -91 -96 -344 -112 -451 -28 -96 76 -108 229 -26 314 61
63 145 87 334 95 110 5 145 9 149 20 9 23 -15 122 -37 152 -47 67 -186 87
-271 40 -38 -21 -80 -68 -91 -100 -2 -7 -18 -8 -39 -4 -61 11 -65 18 -40 67
41 78 108 130 192 148 58 12 180 4 226 -15z m1673 -375 l0 -380 -50 0 -50 0 0
380 0 380 50 0 50 0 0 -380z m-310 80 l0 -50 -510 0 -510 0 0 50 0 50 510 0
510 0 0 -50z"/>
<path d="M995 1750 c-119 -9 -169 -24 -212 -63 -72 -67 -49 -172 47 -209 89
-34 199 -19 280 39 58 42 70 69 70 162 l0 81 -47 -2 c-27 0 -88 -4 -138 -8z"/>
</g>
</svg>
