<?xml version="1.0" standalone="no"?>
<!DOCTYPE svg PUBLIC "-//W3C//DTD SVG 20010904//EN"
 "http://www.w3.org/TR/2001/REC-SVG-20010904/DTD/svg10.dtd">
<svg version="1.0" xmlns="http://www.w3.org/2000/svg"
 width="831.000000pt" height="831.000000pt" viewBox="0 0 831.000000 831.000000"
 preserveAspectRatio="xMidYMid meet">
<metadata>
Created by potrace 1.11, written by Peter Selinger 2001-2013
</metadata>
<g transform="translate(0.000000,831.000000) scale(0.100000,-0.100000)"
fill="#000000" stroke="none">
<path d="M4034 6581 c-23 -10 -71 -46 -108 -80 -92 -82 -116 -88 -276 -67
-219 29 -278 19 -329 -56 -14 -22 -36 -51 -48 -66 l-21 -27 -149 0 c-134 0
-152 -2 -190 -22 -53 -29 -88 -72 -122 -153 -34 -82 -52 -93 -227 -130 -161
-35 -226 -63 -282 -124 -52 -56 -72 -96 -116 -233 -24 -71 -53 -136 -82 -179
-30 -47 -56 -105 -80 -184 l-37 -115 8 -125 c10 -169 8 -191 -22 -274 -54
-148 -65 -204 -59 -302 6 -102 -4 -150 -38 -191 -69 -83 -76 -135 -36 -253 45
-127 40 -194 -20 -315 -80 -160 -68 -223 71 -371 60 -64 89 -102 89 -118 0
-13 -21 -52 -47 -86 -133 -172 -154 -219 -133 -301 11 -43 31 -74 116 -178 27
-32 46 -68 54 -100 l12 -51 -61 -67 c-34 -36 -75 -94 -91 -127 -51 -106 -60
-160 -60 -378 l0 -198 79 0 79 0 4 208 3 207 34 72 c41 87 114 161 198 201
l58 27 364 3 364 3 596 -357 c377 -226 604 -357 621 -357 17 0 244 131 621
357 l596 357 364 -3 364 -3 58 -27 c84 -40 157 -114 198 -201 l34 -72 3 -207
4 -208 80 0 80 0 -4 223 c-5 253 -14 295 -93 412 l-42 64 29 58 c36 73 47 175
28 272 -12 67 -12 68 16 111 40 60 39 129 -3 224 -30 68 -31 71 -16 115 28 84
28 178 0 272 -39 131 -39 130 -11 236 30 111 34 201 12 253 -8 20 -34 57 -57
83 -47 55 -48 66 -26 202 24 142 5 213 -80 304 -55 59 -65 85 -65 170 0 81
-14 160 -36 206 -9 19 -42 63 -75 98 -75 83 -82 102 -68 184 23 130 -5 197
-105 253 l-53 30 -7 95 c-18 253 -140 411 -333 431 l-63 7 0 54 c0 139 -70
189 -300 213 -135 15 -149 22 -167 85 -27 94 -90 149 -185 164 -64 11 -127 -4
-236 -54 l-76 -35 -130 64 c-199 98 -286 116 -372 77z m147 -155 c25 -8 94
-38 155 -69 60 -30 132 -62 160 -71 57 -19 70 -16 214 53 36 17 80 31 98 31
32 0 72 -29 72 -52 0 -38 24 -89 57 -122 45 -45 98 -61 260 -80 68 -8 127 -17
133 -21 5 -3 10 -33 10 -66 0 -119 54 -167 203 -184 49 -6 66 -13 99 -43 59
-53 78 -105 93 -248 15 -149 29 -175 111 -225 55 -34 59 -39 56 -70 -1 -19 -3
-68 -4 -109 -3 -94 18 -144 95 -228 30 -33 60 -69 66 -80 6 -12 15 -76 20
-144 10 -142 22 -173 102 -265 l51 -58 -6 -75 c-19 -225 -19 -235 1 -281 11
-24 36 -64 56 -87 45 -53 46 -76 12 -208 -32 -123 -31 -149 5 -275 35 -123 36
-135 9 -219 -24 -76 -20 -125 17 -208 30 -67 30 -73 0 -125 -35 -60 -39 -96
-22 -165 20 -76 20 -117 0 -175 l-16 -46 -46 23 c-106 54 -139 59 -423 63
l-267 5 -6 30 c-3 17 -6 52 -6 78 0 64 -30 107 -103 145 -64 34 -64 33 -45
144 14 81 3 132 -38 181 -25 29 -72 60 -92 60 -12 0 -21 -48 -23 -125 -1 -33
-8 -93 -15 -133 -24 -128 5 -198 101 -248 l55 -29 0 -52 0 -53 -255 0 -255 0
0 208 1 207 117 75 c210 135 409 359 521 585 94 192 145 380 158 582 l6 103
-41 0 c-49 0 -56 9 -98 115 -48 121 -76 153 -185 208 -51 26 -74 75 -108 224
-55 244 -113 313 -328 389 -131 47 -176 75 -198 121 -89 193 -106 222 -153
264 -67 60 -135 83 -242 82 -147 -1 -243 -54 -315 -173 -50 -82 -88 -96 -228
-84 -176 15 -275 11 -331 -14 -112 -50 -162 -115 -247 -317 -66 -158 -97 -195
-220 -260 -130 -69 -221 -158 -244 -240 -20 -66 -16 -110 16 -216 19 -62 20
-75 9 -115 -19 -66 -80 -127 -200 -198 -113 -68 -164 -121 -176 -181 -8 -43 2
-85 20 -85 27 0 122 44 154 72 18 15 50 37 71 48 l39 19 17 -67 c34 -139 108
-301 202 -442 l43 -65 -21 -55 c-33 -87 -24 -153 31 -226 56 -74 67 -116 45
-174 -64 -169 -65 -188 -18 -257 34 -50 45 -83 38 -110 -5 -23 -7 -23 -155
-23 -136 0 -149 2 -154 18 -4 11 -17 29 -30 41 l-24 23 19 41 c42 94 20 198
-60 275 l-54 54 23 56 c28 68 36 142 21 199 -15 53 -96 146 -121 138 -16 -5
-19 3 -25 70 -6 66 -10 75 -27 75 -31 0 -85 -61 -94 -104 -10 -56 11 -110 67
-172 27 -30 49 -63 49 -74 0 -12 -11 -46 -24 -78 -53 -126 -45 -172 46 -255
68 -63 68 -62 28 -171 -17 -48 -20 -67 -12 -96 l9 -37 -136 -6 c-75 -3 -158
-13 -186 -21 -27 -8 -50 -14 -51 -13 -1 1 -9 25 -18 53 -10 31 -39 77 -74 118
-104 124 -104 123 -7 241 84 103 110 155 109 220 -1 70 -32 124 -130 226 -46
48 -84 95 -84 103 0 9 16 49 36 89 49 96 64 155 64 257 0 65 -6 102 -25 155
-14 39 -25 75 -25 82 0 7 18 37 39 68 49 70 62 126 60 267 -1 102 1 112 42
230 42 120 43 126 40 228 -7 217 -6 242 21 326 15 47 44 108 70 145 30 45 56
103 86 194 24 71 55 145 69 164 34 45 86 66 232 95 197 39 271 89 321 216 33
85 30 84 182 81 100 -1 145 2 178 14 51 18 102 63 133 118 24 44 28 44 184 21
201 -30 293 -7 416 104 37 34 75 62 85 62 9 0 37 -6 63 -14z m233 -840 c43
-18 73 -60 120 -166 20 -47 49 -102 63 -122 36 -53 114 -102 226 -143 209 -75
218 -86 268 -320 37 -173 85 -247 198 -304 53 -27 60 -35 81 -88 37 -93 68
-150 102 -188 l31 -36 -17 -97 c-47 -268 -176 -519 -364 -711 -192 -195 -428
-325 -698 -386 -110 -25 -370 -31 -484 -11 -311 54 -574 193 -783 416 -158
168 -271 380 -327 613 l-19 78 36 47 c84 109 99 197 59 341 -22 82 -24 97 -12
125 18 43 65 82 170 141 159 89 207 147 296 359 93 224 106 231 406 211 207
-13 284 17 367 143 24 37 51 72 58 78 42 34 164 45 223 20z m-1145 -2470 c42
-29 95 -64 118 -77 l43 -24 0 -207 0 -208 -129 0 -128 0 -7 62 c-4 41 -16 79
-37 116 l-31 54 26 60 c53 123 44 226 -30 334 -24 35 -44 67 -44 70 0 3 32
-24 72 -61 40 -36 106 -90 147 -119z m571 -250 c278 -57 607 -30 853 69 16 7
17 -8 17 -222 l0 -230 26 -24 c24 -22 35 -24 167 -29 l141 -5 -447 -268 -447
-268 -447 268 -447 268 141 5 c132 5 143 7 167 29 l26 24 0 228 0 227 88 -28
c48 -16 121 -35 162 -44z"/>
<path d="M4630 6027 c0 -42 6 -63 30 -100 41 -66 98 -102 212 -138 118 -36
144 -58 183 -152 40 -98 95 -154 212 -216 67 -35 105 -62 121 -85 13 -19 43
-95 67 -169 24 -75 55 -153 68 -174 26 -39 84 -100 90 -92 2 2 23 32 47 67
l43 62 -20 23 c-31 33 -48 72 -78 177 -52 183 -103 254 -227 316 -117 58 -136
76 -183 179 -32 68 -54 101 -90 133 -47 41 -69 51 -200 92 -69 21 -115 52
-115 76 0 7 -19 18 -42 24 -24 6 -56 15 -72 20 -44 15 -46 14 -46 -43z"/>
<path d="M3043 5830 c-41 -24 -77 -79 -103 -155 -33 -95 -86 -141 -182 -156
-34 -6 -79 -20 -100 -31 -63 -36 -84 -76 -128 -246 -7 -29 -29 -63 -65 -102
-81 -88 -89 -108 -91 -226 -1 -101 -2 -102 -39 -150 -67 -89 -80 -148 -49
-238 l17 -48 -75 -69 c-71 -64 -108 -121 -108 -164 0 -21 155 -22 167 -1 4 7
36 36 69 64 97 80 121 150 89 256 l-15 50 49 72 c53 79 63 118 59 230 l-2 62
62 66 c63 67 73 89 112 242 13 53 24 62 96 75 134 25 221 99 278 237 25 60 36
105 41 167 l7 85 -28 0 c-16 0 -43 -9 -61 -20z"/>
<path d="M5775 4558 c-3 -7 -11 -42 -19 -77 l-15 -63 27 -23 c27 -23 27 -24
27 -167 0 -167 6 -185 85 -243 56 -41 57 -45 35 -152 -12 -56 -13 -83 -5 -120
14 -61 52 -126 90 -153 l29 -21 24 38 c54 86 57 96 36 122 -23 28 -24 63 -3
161 25 116 3 168 -103 250 l-33 25 11 75 c21 161 -28 287 -132 340 -45 23 -48
24 -54 8z"/>
<path d="M5624 3543 c-19 -52 -24 -78 -17 -80 7 -3 24 -14 39 -25 26 -21 26
-24 22 -107 -9 -162 17 -220 132 -295 39 -26 73 -53 76 -60 3 -7 0 -41 -5 -76
-20 -123 23 -212 132 -266 27 -14 50 -24 52 -22 1 2 16 35 33 75 29 68 30 72
12 78 -10 3 -30 15 -45 27 -26 21 -27 21 -20 113 6 79 4 98 -12 136 -22 49
-73 98 -133 129 -21 11 -42 25 -47 32 -4 7 -10 72 -13 144 -4 116 -8 134 -29
165 -25 37 -83 83 -124 98 -25 10 -26 8 -53 -66z"/>
<path d="M3554 4750 c-79 -18 -130 -88 -122 -170 9 -86 71 -144 158 -144 87 0
149 58 158 144 10 109 -87 194 -194 170z"/>
<path d="M4674 4750 c-79 -18 -130 -88 -122 -170 9 -86 71 -144 158 -144 87 0
149 58 158 144 10 109 -87 194 -194 170z"/>
</g>
</svg>
