<?xml version="1.0" standalone="no"?>
<!DOCTYPE svg PUBLIC "-//W3C//DTD SVG 20010904//EN"
 "http://www.w3.org/TR/2001/REC-SVG-20010904/DTD/svg10.dtd">
<svg version="1.0" xmlns="http://www.w3.org/2000/svg"
 width="1600.000000pt" height="1600.000000pt" viewBox="0 0 1600.000000 1600.000000"
 preserveAspectRatio="xMidYMid meet">
<metadata>
Created by potrace 1.11, written by Peter Selinger 2001-2013
</metadata>
<g transform="translate(0.000000,1600.000000) scale(0.100000,-0.100000)"
fill="#000000" stroke="none">
<path d="M0 8000 l0 -8000 8000 0 8000 0 0 8000 0 8000 -8000 0 -8000 0 0
-8000z m15990 0 l0 -7990 -7990 0 -7990 0 0 7990 0 7990 7990 0 7990 0 0
-7990z"/>
<path d="M10388 12844 c-303 -55 -554 -278 -654 -584 -25 -77 -28 -99 -28
-230 0 -154 10 -212 58 -332 112 -276 370 -472 674 -510 516 -66 976 363 938
874 -39 517 -488 873 -988 782z"/>
<path d="M5963 10530 c-153 -13 -402 -57 -535 -96 -616 -177 -1074 -586 -1303
-1162 -20 -52 -34 -96 -32 -99 6 -5 1280 -333 1283 -330 0 1 7 25 13 52 42
172 212 340 420 415 142 52 216 63 421 63 220 1 320 -18 465 -88 150 -72 247
-169 320 -320 54 -113 74 -192 82 -326 l6 -106 -239 -7 c-725 -22 -1411 -147
-1919 -351 -754 -303 -1146 -782 -1172 -1435 -32 -806 426 -1368 1297 -1590
250 -64 720 -97 1010 -71 389 35 770 163 1025 342 103 73 249 216 315 307 24
34 47 62 51 62 3 0 11 -12 18 -27 28 -61 108 -167 172 -227 200 -189 472 -299
828 -335 57 -6 204 -11 327 -11 l224 0 0 514 0 513 -87 6 c-184 13 -314 61
-402 146 -58 56 -94 124 -124 229 -21 76 -21 94 -27 1127 -7 1111 -6 1081 -55
1315 -38 182 -123 406 -214 565 -84 145 -160 244 -281 365 -307 307 -684 477
-1210 545 -145 19 -526 28 -677 15z m1123 -3167 c-23 -292 -110 -546 -254
-739 -102 -137 -271 -282 -411 -354 -418 -212 -937 -174 -1172 88 -123 137
-155 354 -74 512 70 138 244 254 505 338 255 81 556 136 1145 207 116 14 215
28 220 30 6 2 18 4 29 4 17 1 18 -5 12 -86z"/>
<path d="M9900 7800 l0 -2610 645 0 645 0 0 2610 0 2610 -645 0 -645 0 0
-2610z"/>
</g>
</svg>
