<?xml version="1.0" standalone="no"?>
<!DOCTYPE svg PUBLIC "-//W3C//DTD SVG 20010904//EN"
 "http://www.w3.org/TR/2001/REC-SVG-20010904/DTD/svg10.dtd">
<svg version="1.0" xmlns="http://www.w3.org/2000/svg"
 width="1600.000000pt" height="1600.000000pt" viewBox="0 0 1600.000000 1600.000000"
 preserveAspectRatio="xMidYMid meet">
<metadata>
Created by potrace 1.11, written by Peter Selinger 2001-2013
</metadata>
<g transform="translate(0.000000,1600.000000) scale(0.100000,-0.100000)"
fill="#000000" stroke="none">
<path d="M7690 15994 c-30 -2 -134 -8 -230 -14 -841 -51 -1719 -257 -2525
-593 -985 -410 -1835 -977 -2581 -1722 -1293 -1290 -2102 -2968 -2303 -4780
-38 -334 -45 -485 -45 -885 0 -400 7 -551 45 -885 291 -2624 1861 -4937 4189
-6175 966 -514 1986 -813 3125 -916 269 -25 1000 -25 1270 0 888 80 1664 269
2455 599 1570 654 2893 1800 3774 3270 1013 1692 1366 3709 985 5644 -154 786
-408 1502 -787 2218 -610 1154 -1526 2168 -2613 2893 -1167 777 -2487 1230
-3889 1332 -146 11 -768 21 -870 14z m2992 -3718 c52 -13 117 -35 144 -49 256
-130 412 -407 390 -693 -13 -176 -79 -317 -206 -445 -71 -71 -101 -93 -180
-131 -241 -118 -497 -101 -718 46 -273 181 -383 539 -262 844 134 334 487 515
832 428z m-4326 -2246 c342 -27 612 -98 879 -230 527 -262 842 -720 951 -1380
16 -93 18 -230 24 -1225 6 -1113 6 -1120 28 -1204 50 -188 135 -302 276 -371
84 -41 201 -70 281 -70 l45 0 0 -430 0 -430 -147 0 c-287 0 -577 62 -788 168
-197 98 -357 251 -436 415 -13 26 -26 47 -29 47 -3 0 -27 -29 -54 -65 -67 -91
-204 -216 -326 -296 -308 -205 -762 -346 -1227 -381 -270 -21 -669 14 -925 82
-522 137 -905 425 -1092 821 -207 436 -194 986 31 1374 220 380 617 650 1230
836 490 148 1006 223 1746 251 l319 12 -7 111 c-31 499 -219 804 -574 933
-230 83 -573 94 -841 27 -332 -83 -577 -296 -666 -578 -13 -43 -22 -56 -33
-52 -9 2 -239 63 -511 135 -272 72 -503 133 -512 136 -16 5 -15 11 8 77 132
370 411 722 749 944 406 266 989 391 1601 343z m4684 -2730 l0 -2610 -530 0
-530 0 0 2610 0 2610 530 0 530 0 0 -2610z"/>
<path d="M6625 7005 c-512 -49 -652 -66 -850 -100 -396 -68 -644 -172 -810
-339 -131 -132 -182 -267 -172 -456 12 -207 118 -381 304 -497 243 -151 648
-197 985 -112 261 66 490 187 664 352 135 127 213 240 275 394 48 121 92 396
105 661 l7 142 -29 -1 c-16 -1 -231 -21 -479 -44z"/>
</g>
</svg>
