<svg xmlns="http://www.w3.org/2000/svg" viewBox="0 0 998 758"><defs><style>.cls-1{fill: #131313; opacity: 0.25; }.cls-2{fill: #131313; opacity: 0.1;}.cls-3{fill:#f8f7e8;}.cls-4{fill:#131313;}</style></defs><title>imac</title><g id="Layer_2" data-name="Layer 2"><g id="Layer_2-2" data-name="Layer 2"><rect class="cls-1" x="56.5" width="866" height="621" rx="21.43" ry="21.43"/><path class="cls-2" d="M77.93,0H901.07A21.43,21.43,0,0,1,922.5,21.43V531a0,0,0,0,1,0,0H56.5a0,0,0,0,1,0,0V21.43A21.43,21.43,0,0,1,77.93,0Z"/><rect class="cls-3" x="84.5" y="33" width="803" height="460"/><path class="cls-2" d="M564.2,758H410.05A30.31,30.31,0,0,1,380,723.74L393.5,621h188l12.78,103A30.31,30.31,0,0,1,564.2,758Z"/><circle class="cls-4" cx="489.5" cy="575" r="24"/></g></g></svg>