<svg xmlns="http://www.w3.org/2000/svg" width="1750" height="1750" viewBox="0 0 1750 1750">
  <g id="Group_28" data-name="Group 28" transform="translate(-6393 -2719)">
    <circle id="Ellipse_4" data-name="Ellipse 4" cx="875" cy="875" r="875" transform="translate(6393 2719)" fill="#ffd60a"/>
    <g id="github" transform="translate(6893 3301.501)">
      <path id="Path_5" data-name="Path 5" d="M384.062,596.249c116.563,0,279.375,2.812,338.594-115.656C745,435.312,750,383.03,750,333.718h-.031c0-64.781-17.969-126.469-60.937-176.594a236.191,236.191,0,0,0,12.031-74.531c0-33.25-7.5-49.937-22.812-80.094-70,0-115.312,13.125-168.437,54.438A545.634,545.634,0,0,0,384.188,42.718c-46.719,0-93.313,4.812-138.594,15.469-53.906-41.75-99.219-55.656-170-55.656C60.469,32.686,52.813,49.374,52.813,82.624a239.724,239.724,0,0,0,12.031,75.437C21.719,207.718,0,268.936,0,333.718,0,383.03,8.781,435.78,31.563,480.624c61.563,119.844,234.063,115.625,352.5,115.625ZM218.781,284.061c29.688,0,58.281,5.25,87.5,9.281,106.812,16.25,162.969-9.281,228.438-9.281,73.094,0,114.844,59.844,114.844,127.719,0,135.906-125.469,156.625-235.313,156.625H338.937c-109.375,0-235-20.844-235-156.625,0-67.875,41.688-127.719,114.844-127.719Z" transform="translate(0 0)" fill="#2d2d2d"/>
      <path id="Path_6" data-name="Path 6" d="M49.773,116.756c24.572,0,34.953-32.229,34.953-51.944S74.345,12.869,49.773,12.869,14.82,45.1,14.82,64.813,25.2,116.756,49.773,116.756Z" transform="translate(490.439 361.017)" fill="#2d2d2d"/>
      <path id="Path_7" data-name="Path 7" d="M44.5,128.365c27.322,0,38.866-35.837,38.866-57.758S71.8,12.87,44.5,12.87,5.635,48.707,5.635,70.628,17.178,128.365,44.5,128.365Z" transform="translate(172.705 358.176)" fill="#2d2d2d"/>
    </g>
  </g>
</svg>
