<svg xmlns="http://www.w3.org/2000/svg" width="1250" height="1250" viewBox="0 0 1250 1250">
  <g id="Group_16" data-name="Group 16" transform="translate(-5479 -2950)">
    <circle id="Ellipse_4" data-name="Ellipse 4" cx="625" cy="625" r="625" transform="translate(5479 2950)" fill="#ffd60a"/>
    <g id="github" transform="translate(5775 3312.501)">
      <path id="Path_5" data-name="Path 5" d="M336.994,523.483c102.277,0,245.137,2.468,297.1-101.482,19.605-39.732,23.993-85.606,23.993-128.875h-.027c0-56.842-15.767-110.97-53.469-154.952a207.242,207.242,0,0,0,10.557-65.4c0-29.175-6.581-43.817-20.017-70.278-61.421,0-101.181,11.516-147.795,47.766A478.764,478.764,0,0,0,337.1,37.789c-40.993,0-81.877,4.223-121.609,13.573C168.2,14.728,128.436,2.526,66.329,2.526,53.058,28.987,46.34,43.629,46.34,72.8A210.345,210.345,0,0,0,56.9,139C19.057,182.568,0,236.284,0,293.126c0,43.269,7.705,89.554,27.694,128.9,54.018,105.156,205.377,101.455,309.3,101.455ZM191.969,249.555c26.049,0,51.139,4.607,76.777,8.144,93.722,14.259,143-8.144,200.442-8.144,64.136,0,100.769,52.51,100.769,112.066,0,119.25-110.092,137.43-206.474,137.43H297.4c-95.971,0-206.2-18.289-206.2-137.43,0-59.557,36.579-112.066,100.769-112.066Z" transform="translate(0 0)" fill="#2d2d2d"/>
      <path id="Path_6" data-name="Path 6" d="M49.773,116.756c24.572,0,34.953-32.229,34.953-51.944S74.345,12.869,49.773,12.869,14.82,45.1,14.82,64.813,25.2,116.756,49.773,116.756Z" transform="translate(422.153 305.85)" fill="#2d2d2d"/>
      <path id="Path_7" data-name="Path 7" d="M44.5,128.365c27.322,0,38.866-35.837,38.866-57.758S71.8,12.87,44.5,12.87,5.635,48.707,5.635,70.628,17.178,128.365,44.5,128.365Z" transform="translate(148.322 302.102)" fill="#2d2d2d"/>
    </g>
  </g>
</svg>
