<svg xmlns="http://www.w3.org/2000/svg" width="1250" height="1250" viewBox="0 0 1250 1250">
  <g id="Group_13" data-name="Group 13" transform="translate(-1206 -2993)">
    <circle id="Ellipse_1" data-name="Ellipse 1" cx="625" cy="625" r="625" transform="translate(1206 2993)" fill="#ffd60a"/>
    <g id="Group_11" data-name="Group 11" transform="translate(244 -40)">
      <g id="Group_12" data-name="Group 12" transform="translate(1426 150)">
        <path id="Path_2" data-name="Path 2" d="M77.613-.668C30.684-.668,0,30.148,0,70.652c0,39.609,29.77,71.3,75.813,71.3H76.7c47.848,0,77.625-31.7,77.625-71.3-.895-40.5-29.777-71.32-76.715-71.32Zm0,0" transform="translate(-159 3159.668)" fill="#2d2d2d"/>
        <path id="Path_3" data-name="Path 3" d="M8.109,198.313H145.3V611.07H8.109Zm0,0" transform="translate(-159 3159.668)" fill="#2d2d2d"/>
        <path id="Path_4" data-name="Path 4" d="M482.055,188.625c-74.012,0-123.641,69.547-123.641,69.547V198.313h-137.2V611.07H358.406V380.57c0-12.34.895-24.66,4.52-33.484,9.918-24.641,32.488-50.168,70.391-50.168,49.645,0,69.5,37.852,69.5,93.34V611.07H640V374.4C640,247.621,572.313,188.625,482.055,188.625Zm0,0" transform="translate(-159 3159.668)" fill="#2d2d2d"/>
      </g>
    </g>
  </g>
</svg>
