<svg xmlns="http://www.w3.org/2000/svg" width="1750" height="1750" viewBox="0 0 1750 1750">
  <g id="Group_26" data-name="Group 26" transform="translate(-2799 -2719)">
    <circle id="Ellipse_2" data-name="Ellipse 2" cx="875" cy="875" r="875" transform="translate(2799 2719)" fill="#ffd60a"/>
    <path id="medium" d="M561.327,59.255,610,12.692V2.5H441.386L321.216,301.6,184.5,2.5H7.7V12.692L64.558,81.139a23.857,23.857,0,0,1,7.7,19.9V370.025a30.671,30.671,0,0,1-8.21,26.688L0,474.335V484.4H181.6V474.208l-64.05-77.5a31.623,31.623,0,0,1-8.82-26.688V137.361L268.146,484.527h18.529L423.747,137.361V413.92c0,7.295,0,8.794-4.778,13.573L369.66,475.2v10.217H608.882V475.225l-47.529-46.538a14.137,14.137,0,0,1-5.439-13.573V72.828a14.078,14.078,0,0,1,5.414-13.573Z" transform="translate(3371.994 3356.5)" fill="#2d2d2d"/>
  </g>
</svg>
