<svg xmlns="http://www.w3.org/2000/svg" width="1250" height="1250" viewBox="0 0 1250 1250">
  <g id="Group_14" data-name="Group 14" transform="translate(-2633 -2993)">
    <circle id="Ellipse_2" data-name="Ellipse 2" cx="625" cy="625" r="625" transform="translate(2633 2993)" fill="#ffd60a"/>
    <path id="medium" d="M555.851,58.7l48.2-46.109V2.5H437.08l-119,296.185L182.7,2.5H7.626V12.593l56.3,67.779a23.624,23.624,0,0,1,7.626,19.707v266.36a30.372,30.372,0,0,1-8.129,26.427L0,469.732V479.7H179.83V469.606l-63.425-76.739a31.315,31.315,0,0,1-8.734-26.427V136.045L265.53,479.824h18.348L419.613,136.045V409.906c0,7.223,0,8.708-4.732,13.44l-48.827,47.242v10.118H602.941V470.613l-47.065-46.084a14,14,0,0,1-5.386-13.44V72.142a13.941,13.941,0,0,1,5.361-13.44Z" transform="translate(2951.994 3376.5)" fill="#2d2d2d"/>
  </g>
</svg>
