<svg xmlns="http://www.w3.org/2000/svg" width="3000" height="2000" viewBox="0 0 3000 2000">
  <g id="Group_18" data-name="Group 18" transform="translate(-1138 -6949)">
    <rect id="Rectangle_5" data-name="Rectangle 5" width="3000" height="2000" transform="translate(1138 6949)" fill="#fff"/>
    <path id="Path_10" data-name="Path 10" d="M94.705,0A94.705,94.705,0,1,1,0,94.705,94.705,94.705,0,0,1,94.705,0Z" transform="translate(3261 7995.113)" fill="#ffd60a"/>
    <g id="Group_17" data-name="Group 17" transform="translate(2969.177 7981.093)">
      <g id="Group_16" data-name="Group 16" transform="translate(177 109)">
        <path id="Path_8" data-name="Path 8" d="M535.522,274.114a54.929,54.929,0,0,0-31.736,10.146C495.966,260.907,474.761,244.1,449.9,244.1a54.93,54.93,0,0,0-31.736,10.146c-7.819-23.352-29.025-40.162-53.882-40.162a54.5,54.5,0,0,0-28.539,8.075V124.033c0-33.108-25.6-60.033-57.079-60.033s-57.079,26.925-57.079,60.033V379.171l-49.6-39.111c-29.425-23.2-71.263-20.081-97.291,7.264-16.7,17.56-16.7,46.105,0,63.664L277.954,624.765c24.258,25.513,56.508,39.561,90.813,39.561h66.868c86.56,0,156.967-74.05,156.967-165.089V334.147C592.6,301.038,567,274.114,535.522,274.114Zm28.539,225.122c0,74.471-57.621,135.073-128.428,135.073h-66.84c-26.685,0-51.771-10.925-70.635-30.767L94.9,389.767a15.575,15.575,0,0,1,0-21.222,44.455,44.455,0,0,1,59.99-4.473L227.3,421.193a13.666,13.666,0,0,0,14.955,1.411,15.133,15.133,0,0,0,7.877-13.417V124.033c0-16.539,12.815-30.016,28.539-30.016s28.539,13.478,28.539,30.016V349.155c0,8.285,6.393,15.009,14.27,15.009s14.27-6.724,14.27-15.009v-75.04c0-16.539,12.815-30.016,28.539-30.016s28.539,13.478,28.539,30.016v75.04c0,8.285,6.393,15.009,14.27,15.009s14.27-6.724,14.27-15.009V304.131c0-16.539,12.815-30.016,28.539-30.016s28.539,13.478,28.539,30.016v45.024c0,8.285,6.393,15.009,14.27,15.009s14.27-6.724,14.27-15.009V334.147c0-16.539,12.815-30.016,28.539-30.016s28.539,13.478,28.539,30.016V499.236Z" transform="translate(-62.174 -64)" fill="#2d2d2d"/>
      </g>
    </g>
    <path id="Path_12" data-name="Path 12" d="M1.927-12.092l55.066,9.62-.176,47.339H0S-.052,4.7.191-.5A31.832,31.832,0,0,1,.51-6.542,29.274,29.274,0,0,1,1.927-12.092Z" transform="translate(3334.182 8152)" fill="#fff"/>
    <path id="Path_11" data-name="Path 11" d="M24.683-1.816a24,24,0,0,1,6.684.875A28.376,28.376,0,0,1,36.733.878s5.891,3.219,9.24,7.463,6.2,9.722,6.7,14.293a12.955,12.955,0,0,1,.471,3.617c.156,2.9-.112.7-.09,1.342C53.26,33.794,36.34,45,24.5,45,10.969,45-2.553,34.926-2.553,22.5c0-8.363,5.328-14.989,9.545-17.918,1.86-1.292,2.87-3.025,8.167-4.731S22.194-1.816,24.683-1.816Z" transform="translate(3338 8122)" fill="#fff"/>
  </g>
</svg>
