<svg xmlns="http://www.w3.org/2000/svg" width="1750" height="1750" viewBox="0 0 1750 1750">
  <g id="Group_27" data-name="Group 27" transform="translate(-4617 -2719)">
    <circle id="Ellipse_3" data-name="Ellipse 3" cx="875" cy="875" r="875" transform="translate(4617 2719)" fill="#ffd60a"/>
    <g id="twitter" transform="translate(5170 3279)">
      <g id="Group_1" data-name="Group 1" transform="translate(0 48)">
        <path id="Path_1" data-name="Path 1" d="M675,112.927a288.515,288.515,0,0,1-79.734,21.853,137.6,137.6,0,0,0,60.877-76.486,276.547,276.547,0,0,1-87.75,33.5A138.669,138.669,0,0,0,467.311,48C390.7,48,329.02,110.184,329.02,186.417a142.485,142.485,0,0,0,3.206,31.556C217.181,212.363,115.383,157.223,47,73.228a138.418,138.418,0,0,0,42.525,184.95A136.66,136.66,0,0,1,27,241.134v1.519c0,67.247,47.967,123.1,110.869,135.97a138.114,138.114,0,0,1-36.281,4.556,122.355,122.355,0,0,1-26.2-2.362c17.93,54.8,68.808,95.091,129.3,96.4a278.052,278.052,0,0,1-171.577,59.02A259.174,259.174,0,0,1,0,534.338c61.3,39.53,133.945,62.1,212.288,62.1,254.644,0,393.863-210.937,393.863-393.778,0-6.117-.211-12.023-.506-17.888C633.108,165.281,656.184,140.939,675,112.927Z" transform="translate(0 -48)" fill="#2d2d2d"/>
      </g>
    </g>
  </g>
</svg>
